<svg width="149" height="29" viewBox="0 0 149 29" fill="none" xmlns="http://www.w3.org/2000/svg">
<g clip-path="url(#clip0_4134_59)">
<path d="M72.3741 19.0804C71.1466 19.1932 70.4787 19.6986 70.2711 20.6734C70.1898 21.066 70.1898 22.2304 70.2711 22.623C70.4877 23.6384 71.1195 24.0942 72.4779 24.2025C73.6648 24.3018 74.6982 24.1303 75.1992 23.7512C75.7497 23.336 75.9393 22.799 75.9393 21.6482C75.9393 20.5651 75.7904 20.0687 75.3436 19.658C74.9194 19.2654 74.3462 19.1029 73.2992 19.0804C72.9021 19.0713 72.4869 19.0713 72.3741 19.0804ZM73.6828 19.9604C74.6125 20.0732 74.8923 20.4026 74.9329 21.4226C74.978 22.3658 74.8381 22.8306 74.4455 23.0969C74.1477 23.2954 73.7776 23.3631 73.0059 23.3541C71.5798 23.3451 71.2007 22.9885 71.2007 21.6482C71.2007 20.705 71.3993 20.2718 71.9318 20.0732C72.3154 19.9243 73.0465 19.8791 73.6828 19.9604Z" fill="white"/>
<path d="M36.6765 21.6486V24.1533H37.1277H37.579V23.8509V23.5531L37.7099 23.7336C37.9807 24.1036 38.6621 24.2887 39.4384 24.2029C40.3725 24.0946 40.8193 23.693 40.9682 22.8265C41.0314 22.4474 40.9998 21.6937 40.9005 21.3778C40.7426 20.8679 40.4086 20.5339 39.9032 20.3805C39.5467 20.2722 38.8742 20.2496 38.4906 20.3353C38.098 20.4166 37.8859 20.5384 37.7099 20.7821L37.579 20.9626V20.0555V19.1439H37.1277H36.6765V21.6486ZM39.5647 21.1612C39.7813 21.247 39.9573 21.4275 40.025 21.6215C40.0566 21.7118 40.0792 21.9871 40.0837 22.2353C40.0837 22.9303 39.9122 23.2642 39.4835 23.3861C39.2398 23.4538 38.3598 23.4402 38.1522 23.368C37.755 23.2236 37.6106 22.9483 37.6061 22.3255C37.6016 21.7705 37.6377 21.5764 37.7911 21.4004C37.9446 21.2154 38.1341 21.1206 38.4365 21.08C38.7659 21.0349 39.3661 21.08 39.5647 21.1612Z" fill="white"/>
<path d="M47.7423 21.6347L47.7558 24.1304L49.2902 24.1439C50.2064 24.1529 50.9735 24.1349 51.1992 24.1078C52.2372 23.9724 52.7742 23.5843 53.0269 22.781C53.1127 22.4967 53.1262 22.3658 53.1262 21.6483C53.1262 20.9307 53.1127 20.7998 53.0269 20.5155C52.8238 19.8747 52.4041 19.4775 51.7227 19.279C51.3797 19.1797 51.2895 19.1752 49.5475 19.1571L47.7333 19.1346L47.7423 21.6347ZM51.4158 20.1274C51.7001 20.2583 51.8942 20.4523 52.0296 20.7457C52.1198 20.9488 52.1334 21.039 52.1334 21.6483C52.1334 22.2575 52.1198 22.3478 52.0296 22.5508C51.8897 22.8577 51.6911 23.0518 51.3932 23.1691C51.1586 23.2639 51.0548 23.2729 49.9356 23.2864L48.7261 23.3V21.6483V19.9965L49.9581 20.0101C51.127 20.0236 51.1947 20.0281 51.4158 20.1274Z" fill="white"/>
<path d="M54.0592 21.6345L54.0727 24.1301L54.5601 24.1437L55.043 24.1572V23.3178V22.4829H56.4104C57.8546 22.4829 58.193 22.4468 58.5541 22.2618C58.7932 22.14 59.0369 21.8466 59.1362 21.5623C59.249 21.2329 59.2445 20.3844 59.1317 20.0505C59.0324 19.7662 58.8023 19.4909 58.5495 19.3645C58.1705 19.1705 57.8816 19.1434 55.9095 19.1434H54.0502L54.0592 21.6345ZM57.8591 20.0685C58.1614 20.222 58.2246 20.3528 58.2246 20.8132C58.2246 21.2735 58.1614 21.4044 57.8591 21.5578C57.6966 21.639 57.5748 21.648 56.3653 21.6616L55.043 21.6796V20.8132V19.9467L56.3653 19.9647C57.5702 19.9783 57.6966 19.9873 57.8591 20.0685Z" fill="white"/>
<path d="M61.3162 19.184C61.3162 19.2156 62.6023 23.4938 62.7648 24.0083L62.8144 24.1572L63.4959 24.1437L64.1819 24.1301L64.8859 22.2392L65.5899 20.3438L65.6937 20.6146C65.7478 20.759 66.0547 21.5804 66.3706 22.4378C66.691 23.2953 66.9663 24.0309 66.9799 24.076C67.0115 24.1482 67.0746 24.1527 67.6703 24.1437L68.3247 24.1301L69.0784 21.648L69.832 19.1659L69.3582 19.1524C69.0964 19.1479 68.8708 19.1569 68.8527 19.175C68.8347 19.193 68.5729 20.073 68.266 21.1291C67.9637 22.1851 67.7019 23.0741 67.6839 23.1012C67.6658 23.1328 67.3183 22.2528 66.9122 21.1516L66.1675 19.1434H65.6034H65.0393L64.3218 21.1065C63.9246 22.1851 63.5862 23.0922 63.5681 23.1193C63.5501 23.1554 63.5185 23.1102 63.4869 22.9974C63.4598 22.9026 63.198 22.0001 62.9047 20.9937L62.3722 19.1659L61.8442 19.1524C61.5373 19.1479 61.3162 19.1569 61.3162 19.184Z" fill="white"/>
<path d="M76.8519 21.6345L76.8655 24.1301L77.3529 24.1437L77.8357 24.1572V23.205V22.2483L79.2031 22.2663C80.6834 22.2799 80.7375 22.2889 80.9226 22.5416C81.0083 22.6589 81.0173 22.7447 81.0309 23.4126L81.0489 24.1572L81.5273 24.1437L82.0102 24.1301V23.3178C82.0102 22.7627 81.9921 22.4513 81.9515 22.334C81.8658 22.0903 81.6672 21.9143 81.4054 21.8466C81.1527 21.7834 81.1437 21.7383 81.3784 21.6977C81.7394 21.63 81.9696 21.2735 82.0147 20.7139C82.0688 20.0776 81.8974 19.6127 81.5183 19.3916C81.1392 19.1705 80.8729 19.1434 78.7699 19.1434H76.8429L76.8519 21.6345ZM80.7691 20.1182C80.8774 20.1768 80.9451 20.2671 80.9857 20.3889C81.0625 20.6056 81.0309 21.0027 80.9271 21.1607C80.7782 21.3818 80.6563 21.3998 79.1896 21.3998H77.8357V20.6958V19.9963L79.2257 20.0099C80.5254 20.0234 80.6202 20.0279 80.7691 20.1182Z" fill="white"/>
<path d="M82.9789 21.6482V24.1528H85.0999H87.221V23.7241V23.2954H85.5964H83.9717V21.2194V19.1435H83.4753H82.9789V21.6482Z" fill="white"/>
<path d="M87.9514 21.6347L87.9649 24.1304L89.4993 24.1439C90.4155 24.1529 91.1827 24.1349 91.4083 24.1078C92.4463 23.9724 92.9833 23.5843 93.236 22.781C93.3218 22.4967 93.3353 22.3658 93.3353 21.6483C93.3353 20.9307 93.3218 20.7998 93.236 20.5155C93.0329 19.8747 92.6132 19.4775 91.9318 19.279C91.5888 19.1797 91.4986 19.1752 89.7566 19.1571L87.9424 19.1346L87.9514 21.6347ZM91.6204 20.1274C92.1529 20.3756 92.365 20.8043 92.365 21.6483C92.365 22.5012 92.1394 22.957 91.6024 23.1691C91.3677 23.2639 91.2639 23.2729 90.1447 23.2864L88.9352 23.3V21.6483V19.9965L90.1672 20.0101C91.3361 20.0236 91.4038 20.0281 91.6204 20.1274Z" fill="white"/>
<path d="M41.207 20.5057C41.2386 20.5869 41.6313 21.4353 42.069 22.3921L42.8678 24.125L42.5699 24.7253C42.4075 25.0547 42.2721 25.3345 42.2721 25.348C42.2721 25.3616 42.4797 25.3706 42.7369 25.3706H43.2017L44.3164 22.9427C44.9257 21.6114 45.4402 20.4831 45.4582 20.438C45.4853 20.3703 45.4447 20.3613 45.0295 20.3613H44.5692L44.4654 20.5959C44.4067 20.7268 44.1404 21.3361 43.8742 21.9498C43.6079 22.5681 43.3732 23.069 43.3552 23.069C43.3416 23.069 43.0528 22.4598 42.7234 21.7151L42.1186 20.3613H41.6313H41.1439L41.207 20.5057Z" fill="white"/>
<path fill-rule="evenodd" clip-rule="evenodd" d="M0.100166 3.36556C-0.0157675 2.9394 -0.0164694 2.49049 0.0981312 2.06397C0.212732 1.63745 0.438596 1.24835 0.753018 0.93579C1.06744 0.623226 1.45934 0.398212 1.88931 0.28337C2.31929 0.168529 2.77219 0.167906 3.20249 0.281565L14.5077 3.28417C14.6155 3.30595 14.7221 3.33312 14.8271 3.36556C15.0821 3.46256 15.2914 3.65055 15.4138 3.89264C15.5361 4.13472 15.5628 4.4134 15.4885 4.67397C15.4142 4.93454 15.2443 5.15816 15.0122 5.30095C14.7801 5.44373 14.5025 5.49535 14.234 5.44568L13.9785 5.37333C12.7694 5.11459 11.5146 5.15587 10.3255 5.49351C9.13646 5.83115 8.04994 6.4547 7.16251 7.30874C6.30415 8.18826 5.6784 9.26441 5.34092 10.4415C5.00344 11.6186 4.96469 12.8601 5.22812 14.0556L5.30112 14.3359C5.34006 14.4719 5.3516 14.6142 5.33507 14.7546C5.31855 14.895 5.27428 15.0308 5.20481 15.1542C5.13533 15.2777 5.042 15.3864 4.93015 15.4741C4.8183 15.5618 4.69011 15.6268 4.55291 15.6654C4.41571 15.704 4.27219 15.7154 4.13053 15.699C3.98887 15.6827 3.85185 15.6388 3.7273 15.5699C3.60275 15.5011 3.49311 15.4086 3.40462 15.2977C3.31614 15.1868 3.25056 15.0598 3.21161 14.9238C3.17471 14.811 3.14425 14.6963 3.12037 14.5801L0.100166 3.36556Z" fill="white"/>
<path fill-rule="evenodd" clip-rule="evenodd" d="M26.4906 6.45323C26.9208 6.57011 27.3127 6.79662 27.6272 7.11022C27.9417 7.42381 28.1679 7.81357 28.2832 8.24071C28.3985 8.66784 28.399 9.11747 28.2846 9.54486C28.1702 9.97224 27.9449 10.3625 27.6311 10.6768L19.3644 18.9249L19.0997 19.1872C18.9997 19.2864 18.881 19.3652 18.7503 19.4189C18.6195 19.4726 18.4794 19.5003 18.3379 19.5003C18.1963 19.5003 18.0562 19.4726 17.9255 19.4189C17.7947 19.3652 17.676 19.2864 17.576 19.1872C17.3753 18.9843 17.263 18.7115 17.263 18.4275C17.263 18.1434 17.3753 17.8706 17.576 17.6678L17.7676 17.4779C18.5978 16.5634 19.1891 15.4611 19.4897 14.2675C19.7904 13.0739 19.7912 11.8255 19.4921 10.6316C19.1694 9.44942 18.5563 8.3649 17.7077 7.47483C16.8591 6.58477 15.8013 5.91685 14.6288 5.53074L14.3459 5.45839C14.0704 5.38199 13.8356 5.20258 13.6909 4.95796C13.5462 4.71334 13.503 4.4226 13.5703 4.14701C13.6416 3.87324 13.8178 3.63783 14.0615 3.49088C14.3051 3.34393 14.5971 3.29703 14.8751 3.36018L15.2218 3.45062L26.4906 6.45323Z" fill="white"/>
<path fill-rule="evenodd" clip-rule="evenodd" d="M10.5754 27.6608C10.262 27.9731 9.87093 28.1979 9.44181 28.3126C9.01269 28.4273 8.56064 28.4278 8.13126 28.3141C7.70188 28.2003 7.31035 27.9764 6.99616 27.6648C6.68197 27.3532 6.45622 26.965 6.34169 26.5394L3.29412 15.2887C3.29412 15.1711 3.23937 15.0716 3.212 14.9721C3.14061 14.6951 3.18318 14.4013 3.33034 14.1553C3.4775 13.9094 3.7172 13.7315 3.9967 13.6607C4.27621 13.59 4.57262 13.6322 4.82074 13.778C5.06886 13.9239 5.24836 14.1615 5.31975 14.4385L5.38362 14.6917C5.75958 15.8621 6.42087 16.9225 7.30896 17.7791C8.19704 18.6357 9.28451 19.262 10.4751 19.6026C11.6673 19.9006 12.9154 19.9012 14.108 19.6045C15.3005 19.3079 16.4004 18.7231 17.3093 17.9024L17.5192 17.6944C17.7223 17.4961 17.996 17.3849 18.2811 17.3849C18.5662 17.3849 18.8398 17.4961 19.043 17.6944C19.2414 17.8983 19.3524 18.1707 19.3524 18.454C19.3524 18.7374 19.2414 19.0098 19.043 19.2137C18.9608 19.2951 18.8787 19.3856 18.7875 19.467L10.5754 27.6608Z" fill="white"/>
<path d="M17.4837 10.885C14.4083 11.4898 11.1284 10.6051 8.65112 8.23099C9.61288 7.34887 10.8714 6.81445 12.2487 6.81445C14.7157 6.81445 16.8014 8.52895 17.4837 10.885Z" fill="#F52C5C"/>
<path d="M8.25645 8.63135C10.4241 11.298 11.165 14.7749 10.479 17.9954C8.32614 17.223 6.77808 15.0806 6.77808 12.5586C6.77808 11.0397 7.33955 9.65851 8.25645 8.63135Z" fill="#0088FF"/>
<path d="M17.7198 12.5585C17.7198 15.7309 15.2704 18.3026 12.2489 18.3026C11.85 18.3026 11.4611 18.2578 11.0864 18.1726C12.1324 14.9828 14.5551 12.4658 17.6093 11.4041C17.6817 11.777 17.7198 12.1631 17.7198 12.5585Z" fill="#02BCB1"/>
<path d="M36.6765 3.42177H41.8295C43.0869 3.42177 44.2039 3.6811 45.1806 4.19977C46.1574 4.70665 46.9152 5.43161 47.454 6.37465C47.9929 7.3059 48.2623 8.3845 48.2623 9.61045C48.2623 10.8364 47.9929 11.9209 47.454 12.8639C46.9152 13.7952 46.1574 14.5201 45.1806 15.0388C44.2039 15.5457 43.0869 15.7991 41.8295 15.7991H36.6765V3.42177ZM41.7285 13.8541C42.5929 13.8541 43.3507 13.6832 44.0019 13.3413C44.6642 12.9877 45.1694 12.4926 45.5174 11.8561C45.8767 11.2077 46.0563 10.4592 46.0563 9.61045C46.0563 8.76171 45.8767 8.01907 45.5174 7.38252C45.1694 6.73418 44.6642 6.23909 44.0019 5.89724C43.3507 5.5436 42.5929 5.36678 41.7285 5.36678H38.8657V13.8541H41.7285Z" fill="white"/>
<path d="M52.7783 5.3491V9.11535H58.4702V11.0604H52.7783V15.7991H50.5891V3.42177H59.1943V5.3491H52.7783Z" fill="white"/>
<path d="M73.4482 12.4926H66.8806L65.4661 15.7991H64.1694L69.5582 3.42177H70.7875L76.1763 15.7991H74.8627L73.4482 12.4926ZM72.9935 11.4317L70.1644 4.78328L67.3353 11.4317H72.9935Z" fill="white"/>
<path d="M78.1263 3.42177H79.3724V14.6675H85.9736V15.7991H78.1263V3.42177Z" fill="white"/>
<path d="M88.0427 3.42177H89.2889V14.6675H95.8901V15.7991H88.0427V3.42177Z" fill="white"/>
<path d="M97.9591 3.42177H99.2053V15.7991H97.9591V3.42177Z" fill="white"/>
<path d="M110.433 12.4926H103.866L102.451 15.7991H101.155L106.543 3.42177H107.773L113.161 15.7991H111.848L110.433 12.4926ZM109.979 11.4317L107.15 4.78328L104.321 11.4317H109.979Z" fill="white"/>
<path d="M124.963 3.42177V15.7991H123.936L116.358 5.75578V15.7991H115.111V3.42177H116.139L123.733 13.4651V3.42177H124.963Z" fill="white"/>
<path d="M133.93 15.9052C132.762 15.9052 131.707 15.6341 130.764 15.0918C129.832 14.5496 129.097 13.8011 128.558 12.8462C128.03 11.8796 127.766 10.801 127.766 9.61045C127.766 8.41986 128.03 7.34716 128.558 6.39233C129.097 5.42572 129.838 4.67129 130.781 4.12904C131.724 3.5868 132.779 3.31567 133.946 3.31567C134.822 3.31567 135.63 3.46892 136.371 3.7754C137.112 4.08189 137.741 4.52983 138.257 5.11923L137.466 5.95028C136.545 4.97188 135.383 4.48268 133.98 4.48268C133.048 4.48268 132.201 4.70665 131.437 5.1546C130.674 5.60254 130.073 6.21551 129.635 6.99352C129.209 7.77152 128.996 8.64383 128.996 9.61045C128.996 10.5771 129.209 11.4494 129.635 12.2274C130.073 13.0054 130.674 13.6184 131.437 14.0663C132.201 14.5142 133.048 14.7382 133.98 14.7382C135.395 14.7382 136.557 14.2431 137.466 13.2529L138.257 14.084C137.741 14.6734 137.107 15.1272 136.355 15.4455C135.614 15.752 134.805 15.9052 133.93 15.9052Z" fill="white"/>
<path d="M149.25 14.6675V15.7991H140.914V3.42177H148.997V4.55341H142.16V8.95621H148.256V10.0702H142.16V14.6675H149.25Z" fill="white"/>
</g>
<defs>
<clipPath id="clip0_4134_59">
<rect width="149" height="29" fill="white"/>
</clipPath>
</defs>
</svg>
