<svg width="174" height="74" viewBox="0 0 174 74" fill="none" xmlns="http://www.w3.org/2000/svg">
<mask id="mask0_62_91" style="mask-type:luminance" maskUnits="userSpaceOnUse" x="0" y="0" width="174" height="74">
<path d="M173.997 0H0.419434V74H173.997V0Z" fill="white"/>
</mask>
<g mask="url(#mask0_62_91)">
<path d="M64.6784 29.1583V46.8597H62.0803V31.7542L64.6784 29.1583Z" fill="#003764"/>
<path d="M132.593 30.4845V46.8603H129.993V33.7127L125.972 46.8603H123.11L119.088 33.5692V46.8603H116.49V30.4845H120.332L124.541 44.0994L128.75 30.4845H132.593Z" fill="#003764"/>
<path d="M99.0812 29.1581V46.8594H96.4817V39.603H89.706V46.8594H87.1079V30.4923H89.706V37.25H96.4817V31.7866L99.0812 29.1581Z" fill="#003764"/>
<path d="M152.43 44.5359H159.662V46.859H149.829V30.4861H160.119L157.803 32.8263H152.43V37.2027H158.941V39.5385H152.43V44.5359Z" fill="#003764"/>
<path d="M50.8244 40.4393L53.3303 32.8175L55.837 40.4393H50.8244ZM57.95 46.8588H60.6976L54.7729 30.4845H51.8886L45.9656 46.8588H48.7115L50.055 42.7739H56.606L57.95 46.8588Z" fill="#003764"/>
<path d="M105.253 40.4393L107.759 32.8175L110.266 40.4393H105.253ZM112.377 46.8588H115.126L109.201 30.4845H106.316L100.394 46.8588H103.14L104.484 42.7739H111.034L112.377 46.8588Z" fill="#003764"/>
<path d="M30.2966 29.1586V40.1818C30.2966 44.0126 28.667 47.1143 23.5379 47.1328V47.1356C23.5312 47.1356 23.5211 47.1328 23.5144 47.1328C23.505 47.1328 23.4989 47.1356 23.4908 47.1356V47.1328C18.3626 47.1143 16.7329 44.0126 16.7474 40.1818V30.4713H19.346V40.0923C19.346 42.9085 20.5818 44.7713 23.5144 44.7785C26.4476 44.7713 27.6996 42.9085 27.6996 40.0923V31.7645L30.2966 29.1586Z" fill="#003764"/>
<path d="M75.3703 38.6697C75.3703 37.2986 75.793 32.827 81.2286 32.827H83.6139L85.3667 30.4827H80.7308C75.7433 30.4827 72.78 33.6967 72.78 38.6697C72.78 43.6428 75.7433 46.8568 80.7308 46.8568H84.7838V44.5125H81.2286C75.793 44.5125 75.3703 40.0409 75.3703 38.6697Z" fill="#003764"/>
<path d="M40.416 44.5244H35.9751V39.5372H40.416C41.8038 39.5372 42.6723 40.6441 42.6723 42.0251C42.6723 43.4076 41.8038 44.5244 40.416 44.5244ZM40.0061 32.8191C41.2176 32.8191 41.9406 33.7924 41.9406 34.9988C41.9406 36.2037 41.2176 37.2027 40.0061 37.2027H35.9751V32.8191H40.0061ZM45.2698 42.0251C45.2698 40.4267 44.4864 39.0085 43.2816 38.1305C44.0616 37.3135 44.5414 36.2094 44.5414 34.9988C44.5414 32.5094 42.6723 30.4861 40.0061 30.4861H33.3743V46.859H40.4714C43.1232 46.8264 45.2698 44.6708 45.2698 42.0251Z" fill="#003764"/>
<path d="M142.731 44.5244H138.289V39.5385H142.731C144.121 39.5385 144.986 40.6441 144.986 42.0266C144.986 43.4076 144.121 44.5244 142.731 44.5244ZM142.321 32.8191C143.534 32.8191 144.258 33.7939 144.258 34.9988C144.258 36.2052 143.534 37.2027 142.321 37.2027H138.289V32.8191H142.321ZM147.585 42.0266C147.585 40.4267 146.801 39.01 145.599 38.1305C146.377 37.3135 146.855 36.2094 146.855 34.9988C146.855 32.5109 144.986 30.4861 142.321 30.4861H135.693V46.859H142.788C145.438 46.8264 147.585 44.6723 147.585 42.0266Z" fill="#003764"/>
<path d="M164.469 32.817H168.502C169.712 32.817 170.438 33.7918 170.438 34.9967C170.438 36.2031 169.712 37.2006 168.502 37.2006H164.469V32.817ZM173.778 46.8568L169.953 39.2935C171.868 38.7762 173.036 36.9789 173.036 34.9967C173.036 32.5088 171.001 30.4827 168.502 30.4827C168.491 30.4827 168.477 30.484 168.464 30.484L161.873 30.4827V46.8568H164.469V39.5364H167.433L170.929 46.8568H173.778Z" fill="#003764"/>
<path d="M9.35247 30.8455L7.32399 32.8773C11.2858 33.6517 11.9062 37.3815 11.9062 38.6149C11.9062 39.9932 11.205 44.5088 5.77171 44.5186H0.419434V46.8561H6.29357C11.2814 46.8504 14.5048 43.6179 14.5048 38.6149C14.5048 34.7273 12.5604 31.9111 9.35247 30.8455Z" fill="#003764"/>
<path d="M2.77423 32.8443H5.10647L7.46127 30.4856H0.419434V37.5404L2.77423 35.1816V32.8443Z" fill="#D7282F"/>
<path d="M128.022 13.5027H124.341C122.543 13.5027 121.344 12.0335 121.344 10.2318C121.344 8.43155 122.543 7.07602 124.341 7.07602H128.022V13.5027ZM93.7278 14.5967L93.7235 14.6437C93.7235 14.6437 93.725 14.6579 93.7263 14.6778C93.0243 15.1922 92.1593 15.499 91.222 15.499C88.8821 15.499 87.2384 13.605 87.2384 11.2776C87.2384 8.95299 88.8821 7.06464 91.222 7.06464H93.7278V14.5967ZM124.341 4.72156C121.256 4.72156 118.745 7.13995 118.745 10.2318C118.745 13.3251 121.256 15.8429 124.341 15.8429H128.017C128.017 17.7639 126.189 18.75 124.743 18.7643H99.5875C99.5718 18.7643 99.5548 18.76 99.5406 18.76C97.9566 18.7245 96.3301 17.575 96.3286 15.6937V4.73155H91.222C87.5929 4.73155 84.6404 7.6685 84.6404 11.2776C84.6404 14.8866 87.5929 17.8222 91.222 17.8222C92.199 17.8222 93.1236 17.6062 93.9575 17.2269C94.6722 19.4023 96.3144 20.6085 98.0629 20.9667C98.4302 21.0547 98.8074 21.1003 99.1946 21.1003H125.067C127.678 21.1003 130.622 19.7418 130.622 15.3655V4.72156H124.341Z" fill="#003764"/>
<path d="M18.6583 23.1631H16.0159V25.8117H18.6583V23.1631Z" fill="#003764"/>
<path d="M57.3216 23.1631H54.6792V25.8117H57.3216V23.1631Z" fill="#003764"/>
<path d="M130.623 0.00146484H127.979V2.64857H130.623V0.00146484Z" fill="#003764"/>
<path d="M163.265 13.0074C163.265 11.6305 163.688 7.11352 169.121 7.11352H170.909L173.27 4.75627H168.625C163.638 4.75627 160.416 8.00583 160.416 13.0074C160.416 15.4343 161.177 17.307 162.527 18.7606H139.24V3.39221L136.64 5.99387V18.7718C136.64 21.2954 135.179 23.4694 131.668 23.4694V25.8081C135.087 25.8081 138.054 24.2253 139.035 21.1021H173.768V18.7606H168.578C163.66 18.4693 163.265 14.3388 163.265 13.0074Z" fill="#003764"/>
<path d="M54.7352 5.97389V14.8246C54.7352 17.9847 52.0375 18.759 50.4372 18.759H33.495V4.74197H29.8072C26.7208 4.74197 24.2097 7.25553 24.2097 10.3488C24.2097 10.3829 24.2114 10.4156 24.2123 12.1988L24.214 18.759H8.47515C6.10364 18.759 3.02362 18.2618 3.02362 14.0133V7.0793L0.425049 9.67813V14.36C0.425049 20.4073 4.87328 21.095 8.1151 21.095H26.8015L26.8081 10.3488C26.8081 8.54713 28.0098 7.09207 29.8072 7.09207H30.8815L30.9036 7.09068V21.0992H50.3179C52.2431 21.0992 57.3189 20.6147 57.3189 14.5191V3.3949L54.7352 5.97389Z" fill="#003764"/>
<path d="M14.7003 23.1631H12.0579V25.8117H14.7003V23.1631Z" fill="#003764"/>
<path d="M171.217 0.00146484H168.575V2.64857H171.217V0.00146484Z" fill="#003764"/>
<path d="M71.0077 5.09546L68.9797 7.12878C72.9411 7.90174 73.5609 11.6315 73.5609 12.8649C73.5609 14.2431 72.86 18.7588 67.427 18.7688H62.0747V21.1088H67.9488C72.9359 21.1003 76.1601 17.8692 76.1601 12.8649C76.1601 8.9773 74.2159 6.16113 71.0077 5.09546Z" fill="#003764"/>
<path d="M64.4296 7.09441H66.7616L69.1165 4.73572H62.0747V11.7919L64.4296 9.43181V7.09441Z" fill="#D7282F"/>
<path d="M96.3581 0.00146484H93.7161V2.64857H96.3581V0.00146484Z" fill="#003764"/>
<path d="M92.4001 0.00146484H89.7583V2.64857H92.4001V0.00146484Z" fill="#003764"/>
<path d="M59.1609 65.0486C59.0961 64.7985 59.0075 64.5696 58.8956 64.3608C58.7832 64.1519 58.6391 63.97 58.4612 63.8167C58.285 63.6646 58.0784 63.5466 57.8408 63.4615C57.6037 63.3762 57.3295 63.3349 57.016 63.3349C56.559 63.3349 56.1629 63.426 55.8304 63.6121C55.496 63.7967 55.2244 64.0453 55.0161 64.3537C54.8079 64.6649 54.6528 65.0159 54.5525 65.4108C54.453 65.806 54.4024 66.2065 54.4024 66.6187C54.4024 67.0279 54.453 67.4299 54.5525 67.8249C54.6528 68.2186 54.8079 68.571 55.0161 68.8807C55.2244 69.1919 55.496 69.439 55.8304 69.6224C56.1629 69.8072 56.559 69.8995 57.016 69.8995C57.3533 69.8995 57.6508 69.844 57.9072 69.7247C58.1643 69.6081 58.3854 69.4475 58.5694 69.2429C58.7553 69.037 58.8989 68.7982 59.0034 68.524C59.1089 68.2511 59.177 67.9585 59.2091 67.643H60.6787C60.6465 68.1588 60.5352 68.6293 60.348 69.0555C60.1585 69.4832 59.9037 69.8497 59.5825 70.1609C59.2612 70.4693 58.8829 70.7079 58.4503 70.8785C58.0154 71.0476 57.5374 71.1314 57.016 71.1314C56.3729 71.1314 55.7979 71.0136 55.2876 70.7747C54.7776 70.5388 54.3459 70.2134 53.992 69.8042C53.6386 69.3937 53.3688 68.9147 53.1799 68.3679C52.991 67.8208 52.8958 67.2381 52.8958 66.6187C52.8958 66.0062 52.991 65.4266 53.1799 64.881C53.3688 64.331 53.6386 63.8535 53.992 63.443C54.3459 63.0338 54.7776 62.7069 55.2876 62.4654C55.7979 62.2238 56.3729 62.103 57.016 62.103C57.4984 62.103 57.9527 62.1698 58.3775 62.3019C58.8037 62.434 59.1781 62.6288 59.5049 62.8817C59.829 63.1346 60.0926 63.443 60.2926 63.8052C60.4931 64.1676 60.6177 64.5824 60.6659 65.0486H59.1609Z" fill="#D7282F"/>
<path d="M65.713 63.3349C65.256 63.3349 64.8605 63.4273 64.5276 63.6134C64.1936 63.7967 63.922 64.0453 63.7132 64.3537C63.5055 64.6649 63.3504 65.0159 63.2501 65.4108C63.1482 65.806 63.1 66.208 63.1 66.6187C63.1 67.0279 63.1482 67.4299 63.2501 67.8264C63.3504 68.2186 63.5055 68.5723 63.7132 68.8807C63.922 69.1919 64.1936 69.439 64.5276 69.6238C64.8605 69.8085 65.256 69.9023 65.713 69.9023C66.1702 69.9023 66.5662 69.8085 66.9002 69.6238C67.2326 69.439 67.504 69.1919 67.7127 68.8807C67.9206 68.5723 68.0756 68.2186 68.1765 67.8264C68.2778 67.4299 68.3277 67.0279 68.3277 66.6187C68.3277 66.208 68.2778 65.806 68.1765 65.4108C68.0756 65.0159 67.9206 64.6649 67.7127 64.3537C67.504 64.0453 67.2326 63.7967 66.9002 63.6134C66.5662 63.4273 66.1702 63.3349 65.713 63.3349ZM65.713 62.103C66.3561 62.103 66.9324 62.2238 67.4412 62.4654C67.9516 62.7069 68.3825 63.0338 68.7365 63.443C69.0899 63.855 69.3613 64.3325 69.5507 64.881C69.7381 65.428 69.8334 66.0062 69.8334 66.6187C69.8334 67.2381 69.7381 67.8208 69.5507 68.3679C69.3613 68.9162 69.0899 69.3937 68.7365 69.8042C68.3825 70.2164 67.9516 70.5388 67.4412 70.7762C66.9324 71.0134 66.3561 71.1314 65.713 71.1314C65.0705 71.1314 64.4938 71.0134 63.9846 70.7762C63.4746 70.5388 63.0435 70.2164 62.6895 69.8042C62.3356 69.3937 62.0647 68.9162 61.8775 68.3679C61.6881 67.8208 61.5928 67.2381 61.5928 66.6187C61.5928 66.0062 61.6881 65.428 61.8775 64.881C62.0647 64.3325 62.3356 63.855 62.6895 63.443C63.0435 63.0338 63.4746 62.7069 63.9846 62.4654C64.4938 62.2238 65.0705 62.103 65.713 62.103Z" fill="#D7282F"/>
<path d="M71.1816 62.3077H73.3022L75.675 69.0541H75.6992L78.0122 62.3077H80.108V70.9269H78.6743V64.2756H78.6488L76.2664 70.9269H75.0242L72.6386 64.2756H72.6159V70.9269H71.1816V62.3077Z" fill="#D7282F"/>
<path d="M81.8918 62.3077H84.0121L86.386 69.0541H86.4102L88.7229 62.3077H90.819V70.9269H89.3838V64.2756H89.3598L86.9774 70.9269H85.7351L83.3498 64.2756H83.327V70.9269H81.8918V62.3077Z" fill="#D7282F"/>
<path d="M92.6257 62.3077H98.8172V63.6107H94.1304V65.8671H98.467V67.0991H94.1304V69.6212H98.9009V70.9254H92.6257V62.3077Z" fill="#D7282F"/>
<path d="M101.719 66.2322H104.189C104.67 66.2322 105.037 66.1156 105.285 65.8868C105.535 65.658 105.66 65.3142 105.66 64.8552C105.66 64.5825 105.619 64.3594 105.538 64.1861C105.458 64.0128 105.346 63.8762 105.206 63.7811C105.066 63.6844 104.907 63.6191 104.725 63.5878C104.545 63.5565 104.357 63.541 104.165 63.541H101.719V66.2322ZM100.214 62.3091H104.323C105.27 62.3091 105.98 62.5137 106.454 62.9242C106.928 63.3349 107.165 63.9062 107.165 64.6393C107.165 65.0486 107.105 65.388 106.983 65.6581C106.864 65.9281 106.723 66.1454 106.562 66.3088C106.402 66.4736 106.244 66.5929 106.087 66.6669C105.931 66.738 105.816 66.7863 105.744 66.8118V66.8346C105.873 66.8516 106.009 66.8914 106.158 66.9568C106.307 67.0194 106.446 67.123 106.575 67.2638C106.702 67.4044 106.809 67.5877 106.892 67.8121C106.979 68.0367 107.02 68.3194 107.02 68.6575C107.02 69.1648 107.057 69.6253 107.135 70.0388C107.211 70.4535 107.329 70.7492 107.491 70.9253H105.875C105.763 70.7421 105.697 70.536 105.677 70.3114C105.657 70.0856 105.646 69.8697 105.646 69.6593C105.646 69.2656 105.623 68.9262 105.575 68.639C105.527 68.3549 105.437 68.1162 105.31 67.9272C105.181 67.7383 105.006 67.599 104.785 67.5109C104.564 67.4229 104.281 67.3788 103.935 67.3788H101.719V70.9253H100.214V62.3091Z" fill="#D7282F"/>
<path d="M114.503 65.0486C114.44 64.7985 114.35 64.5696 114.238 64.3608C114.126 64.1519 113.981 63.97 113.804 63.8167C113.628 63.6646 113.421 63.5466 113.183 63.4615C112.946 63.3762 112.673 63.3349 112.359 63.3349C111.902 63.3349 111.505 63.426 111.173 63.6121C110.839 63.7967 110.567 64.0453 110.36 64.3537C110.151 64.6649 109.995 65.0159 109.896 65.4108C109.795 65.806 109.745 66.2065 109.745 66.6187C109.745 67.0279 109.795 67.4299 109.896 67.8249C109.995 68.2186 110.151 68.571 110.36 68.8807C110.567 69.1919 110.839 69.439 111.173 69.6224C111.505 69.8072 111.902 69.8995 112.359 69.8995C112.697 69.8995 112.993 69.844 113.25 69.7247C113.508 69.6081 113.728 69.4475 113.912 69.2429C114.098 69.037 114.242 68.7982 114.346 68.524C114.452 68.2511 114.52 67.9585 114.551 67.643H116.022C115.989 68.1588 115.877 68.6293 115.69 69.0555C115.502 69.4832 115.246 69.8497 114.926 70.1609C114.604 70.4693 114.225 70.7079 113.793 70.8785C113.357 71.0476 112.882 71.1314 112.359 71.1314C111.715 71.1314 111.141 71.0136 110.63 70.7747C110.12 70.5388 109.689 70.2134 109.334 69.8042C108.981 69.3937 108.712 68.9147 108.523 68.3679C108.333 67.8208 108.238 67.2381 108.238 66.6187C108.238 66.0062 108.333 65.4266 108.523 64.881C108.712 64.331 108.981 63.8535 109.334 63.443C109.689 63.0338 110.12 62.7069 110.63 62.4654C111.141 62.2238 111.715 62.103 112.359 62.103C112.841 62.103 113.295 62.1698 113.72 62.3019C114.146 62.434 114.52 62.6288 114.848 62.8817C115.171 63.1346 115.435 63.443 115.635 63.8052C115.836 64.1676 115.961 64.5824 116.009 65.0486H114.503Z" fill="#D7282F"/>
<path d="M117.395 62.3077H123.588V63.6107H118.901V65.8684H123.237V67.1004H118.901V69.6225H123.671V70.9269H117.395V62.3077Z" fill="#D7282F"/>
<path d="M135.181 61.6277C135.181 62.0682 134.805 62.4447 134.381 62.4447C133.943 62.4447 133.565 62.0682 133.565 61.6277C133.565 61.1872 133.943 60.8263 134.381 60.8263C134.805 60.8263 135.181 61.1872 135.181 61.6277ZM135.054 67.3283C135.054 65.7895 134.475 65.0193 133.331 65.0193C132.203 65.0193 131.638 65.7895 131.638 67.3283C131.638 68.8842 132.203 69.6686 133.331 69.6686C134.475 69.6686 135.054 68.8842 135.054 67.3283ZM133.079 61.6277C133.079 62.0682 132.703 62.4447 132.249 62.4447C131.81 62.4447 131.45 62.0682 131.45 61.6277C131.45 61.1872 131.81 60.8263 132.249 60.8263C132.703 60.8263 133.079 61.1872 133.079 61.6277ZM136.514 67.3283C136.514 68.3499 136.294 69.167 135.854 69.7779C135.307 70.5495 134.459 70.926 133.331 70.926C132.203 70.926 131.373 70.5495 130.823 69.7779C130.368 69.167 130.149 68.3499 130.149 67.3283C130.149 66.3238 130.368 65.5068 130.823 64.8943C131.373 64.1398 132.203 63.7633 133.331 63.7633C134.459 63.7633 135.307 64.1398 135.854 64.8943C136.294 65.5068 136.514 66.3238 136.514 67.3283Z" fill="#D7282F"/>
<path d="M142.607 70.4563C142.607 71.5079 142.294 72.3406 141.652 72.9857C141.025 73.6293 140.163 73.9432 139.081 73.9432C138.406 73.9432 137.858 73.8011 137.403 73.5199L136.698 72.0422C137.403 72.4358 138.187 72.639 139.081 72.639C140.351 72.639 141.119 71.822 141.119 70.5033V63.8435H142.607V70.4563Z" fill="#D7282F"/>
<path d="M147.689 70.9247H146.027C144.693 70.9247 143.958 70.1075 143.958 68.8983V60.7952H145.447V68.853C145.447 69.3531 145.699 69.606 146.215 69.606H147.689V70.9247Z" fill="#D7282F"/>
<path d="M152.734 73.1263C152.734 73.5653 152.359 73.9432 151.919 73.9432C151.481 73.9432 151.105 73.5653 151.105 73.1263C151.105 72.6858 151.481 72.3248 151.919 72.3248C152.359 72.3248 152.734 72.6858 152.734 73.1263ZM157.799 70.9268H147.294V69.6394H154.334V69.0738C154.334 67.8789 154.223 67.0164 154.004 66.4836C153.66 65.6027 152.971 65.1622 151.936 65.1622C151.072 65.1622 150.29 65.5729 149.554 66.3728L148.487 65.3825C149.537 64.3608 150.682 63.8435 151.936 63.8435C153.519 63.8435 154.616 64.4248 155.227 65.5729C155.65 66.3728 155.856 67.5492 155.856 69.0738V69.6081H157.799V70.9268Z" fill="#D7282F"/>
<path d="M162.561 61.6277C162.561 62.0682 162.185 62.4447 161.745 62.4447C161.323 62.4447 160.945 62.0682 160.945 61.6277C160.945 61.1872 161.323 60.8263 161.745 60.8263C162.185 60.8263 162.561 61.1872 162.561 61.6277ZM160.46 61.6277C160.46 62.0682 160.083 62.4447 159.646 62.4447C159.19 62.4447 158.847 62.0682 158.847 61.6277C158.847 61.1872 159.19 60.8263 159.646 60.8263C160.083 60.8263 160.46 61.1872 160.46 61.6277ZM163.894 70.926H162.954C162.027 70.926 161.308 70.6433 160.775 70.092C160.242 70.6433 159.503 70.926 158.547 70.926H157.418V69.6373H158.454C159.503 69.6373 160.022 69.103 160.022 68.0359V63.8429H161.496V68.0827C161.496 69.12 162.012 69.6373 163.047 69.6373H163.894V70.926Z" fill="#D7282F"/>
<path d="M170.213 70.9247H169.179C168.27 70.9247 167.548 70.6418 166.999 70.0762C166.482 70.6418 165.745 70.9247 164.79 70.9247H163.521V69.606H164.696C165.73 69.606 166.247 69.0717 166.247 68.0033V60.7952H167.737V68.0814C167.737 69.103 168.254 69.606 169.274 69.606H170.213V70.9247Z" fill="#D7282F"/>
<path d="M173.77 68.1454C173.77 68.9453 173.503 69.606 172.97 70.1403C172.436 70.6575 171.716 70.9247 170.823 70.9247H169.819V69.606H170.745C171.764 69.606 172.28 69.0717 172.28 68.0033V60.7952H173.77V68.1454Z" fill="#D7282F"/>
</g>
</svg>
